# xmcd
#
# Track frame offsets:
# 150
# 17195
# 34217
# 48170
# 64662
# 81570
# 96727
# 113130
# 129707
# 144840
# 163755
# 178967
# 187235
#
# Disc length: 2735 seconds
#
#
# Revision: 4
# Processed by: cddbd v1.4PL0 Copyright (c) Steve Scherf et al.
# Submitted via: FreeRIP 2.35 
#
DISCID=c30aad0d
DTITLE=Collin Raye - The Walls Came Down
DYEAR=1998
DGENRE=Country
TTITLE0=Anyone Else
TTITLE1=I Wish I Could
TTITLE2=Start Over Georgia
TTITLE3=I Can Still Feel You
TTITLE4=Someone You Used to Know
TTITLE5=Corner Of The Heart
TTITLE6=All My Roads
TTITLE7=The Walls Came Down
TTITLE8=April Fool
TTITLE9=Make Sure You've Got It All
TTITLE10=Survivors
TTITLE11=Dark Secrets (Instrumental)
TTITLE12=The Eleventh Commandment
EXTD=
EXTT0=
EXTT1=
EXTT2=
EXTT3=
EXTT4=
EXTT5=
EXTT6=
EXTT7=
EXTT8=
EXTT9=
EXTT10=
EXTT11=
EXTT12=
PLAYORDER=
